<svg width="119" height="139" viewBox="0 0 119 139" fill="none" xmlns="http://www.w3.org/2000/svg">
<path d="M79.9837 39.1801C71.6137 39.1801 63.0937 38.8401 55.1237 36.6201C47.3037 34.4501 40.1237 30.2401 33.7237 25.3701C29.5337 22.2001 25.7237 19.6701 20.2837 20.0501C14.9618 20.3381 9.87253 22.3254 5.76374 25.7201C-1.15626 31.7801 -0.116261 43.0101 2.65374 50.8701C6.81374 62.7401 19.4737 71.0101 30.2337 76.3601C42.6637 82.5701 56.3237 86.1801 70.0137 88.2501C82.0137 90.0801 97.4337 91.4001 107.834 83.5701C117.384 76.3601 120.004 59.9201 117.664 48.8201C117.096 45.5409 115.35 42.5821 112.754 40.5001C106.044 35.5901 96.0337 38.8701 88.4937 39.0301C85.6937 39.0901 82.8437 39.1601 79.9837 39.1801Z" fill="#FACC06" fill-opacity="0.3"/>
<path d="M59.9039 107.71C80.1783 107.71 96.6139 106.685 96.6139 105.42C96.6139 104.155 80.1783 103.13 59.9039 103.13C39.6295 103.13 23.1939 104.155 23.1939 105.42C23.1939 106.685 39.6295 107.71 59.9039 107.71Z" fill="#2D333E"/>
<path d="M8.10382 17.13L21.1038 16.03C22.7249 15.8881 24.3456 16.3073 25.6945 17.2175C27.0434 18.1277 28.0387 19.4736 28.5138 21.03L40.9738 62.73L38.5338 67.1C37.9071 68.226 37.5977 69.5009 37.6386 70.7889C37.6796 72.0769 38.0693 73.3296 38.7662 74.4135C39.4632 75.4974 40.4412 76.3719 41.5961 76.9436C42.7509 77.5153 44.0393 77.7629 45.3238 77.66L95.2238 73.42" stroke="#E4BB07" stroke-linecap="round" stroke-linejoin="round"/>
<path d="M30.3738 27.36L88.3738 22.44C88.9452 22.391 89.5202 22.4713 90.0563 22.6749C90.5924 22.8786 91.0758 23.2003 91.4706 23.6162C91.8653 24.0321 92.1614 24.5316 92.3368 25.0775C92.5123 25.6235 92.5625 26.2019 92.4838 26.77L88.5538 55.14C88.4345 55.9911 88.0323 56.7774 87.412 57.3724C86.7917 57.9673 85.9893 58.3363 85.1338 58.42L40.9738 62.73L30.3738 27.36Z" fill="#FACC06" fill-opacity="0.2" stroke="#E4BB07" stroke-linecap="round" stroke-linejoin="round"/>
<path d="M50.8739 87.22C53.4751 87.22 55.5839 85.1113 55.5839 82.51C55.5839 79.9088 53.4751 77.8 50.8739 77.8C48.2726 77.8 46.1639 79.9088 46.1639 82.51C46.1639 85.1113 48.2726 87.22 50.8739 87.22Z" fill="#FACC06" fill-opacity="0.2" stroke="#E4BB07" stroke-linecap="round" stroke-linejoin="round"/>
<path d="M83.6737 84.44C86.2749 84.44 88.3837 82.3313 88.3837 79.73C88.3837 77.1288 86.2749 75.02 83.6737 75.02C81.0724 75.02 78.9637 77.1288 78.9637 79.73C78.9637 82.3313 81.0724 84.44 83.6737 84.44Z" fill="#FACC06" fill-opacity="0.2" stroke="#E4BB07" stroke-linecap="round" stroke-linejoin="round"/>
<path d="M18.3983 14.9041L6.14239 15.944C5.08029 16.0341 4.29236 16.9682 4.38248 18.0303C4.4726 19.0924 5.40665 19.8803 6.46874 19.7902L18.7247 18.7502C19.7868 18.6601 20.5747 17.7261 20.4846 16.664C20.3945 15.6019 19.4604 14.8139 18.3983 14.9041Z" fill="#FACC06"/>
<path d="M54.7938 49.27C55.0329 47.4449 55.8888 45.7565 57.2194 44.4847C58.5501 43.2129 60.2755 42.4342 62.1095 42.2777C63.9435 42.1213 65.7759 42.5965 67.3027 43.6246C68.8295 44.6527 69.959 46.1718 70.5038 47.93" stroke="#E4BB07" stroke-linecap="round" stroke-linejoin="round"/>
<path d="M70.6337 38.48C71.2523 38.48 71.7537 37.9785 71.7537 37.36C71.7537 36.7414 71.2523 36.24 70.6337 36.24C70.0152 36.24 69.5137 36.7414 69.5137 37.36C69.5137 37.9785 70.0152 38.48 70.6337 38.48Z" fill="#E4BB07"/>
<path d="M52.8837 39.98C53.5023 39.98 54.0037 39.4785 54.0037 38.86C54.0037 38.2414 53.5023 37.74 52.8837 37.74C52.2652 37.74 51.7637 38.2414 51.7637 38.86C51.7637 39.4785 52.2652 39.98 52.8837 39.98Z" fill="#E4BB07"/>
<path d="M21.3338 81.1201V85.4301" stroke="#E4BB07" stroke-linecap="round" stroke-linejoin="round"/>
<path d="M19.1839 83.27H23.4839" stroke="#E4BB07" stroke-linecap="round" stroke-linejoin="round"/>
<path d="M90.0438 1V5.3" stroke="#E4BB07" stroke-linecap="round" stroke-linejoin="round"/>
<path d="M87.8939 3.1499H92.1939" stroke="#E4BB07" stroke-linecap="round" stroke-linejoin="round"/>
<path d="M39.1339 13.8501V18.1501" stroke="#E4BB07" stroke-linecap="round" stroke-linejoin="round"/>
<path d="M36.9737 16H41.2837" stroke="#E4BB07" stroke-linecap="round" stroke-linejoin="round"/>
<path d="M100.774 29.6601C101.337 29.6601 101.794 29.2034 101.794 28.6401C101.794 28.0768 101.337 27.6201 100.774 27.6201C100.21 27.6201 99.7537 28.0768 99.7537 28.6401C99.7537 29.2034 100.21 29.6601 100.774 29.6601Z" fill="#FACC06" fill-opacity="0.2" stroke="#E4BB07" stroke-linecap="round" stroke-linejoin="round"/>
<path d="M62.6539 20.49C63.1951 20.49 63.6339 20.0513 63.6339 19.51C63.6339 18.9688 63.1951 18.53 62.6539 18.53C62.1127 18.53 61.6739 18.9688 61.6739 19.51C61.6739 20.0513 62.1127 20.49 62.6539 20.49Z" fill="#CFCFCF"/>
<path d="M69.2337 91.6099C69.775 91.6099 70.2137 91.1711 70.2137 90.6299C70.2137 90.0887 69.775 89.6499 69.2337 89.6499C68.6925 89.6499 68.2537 90.0887 68.2537 90.6299C68.2537 91.1711 68.6925 91.6099 69.2337 91.6099Z" fill="#CFCFCF"/>
<path opacity="0.5" d="M10.0416 129.437V136.71H8.86969L5.44285 131.756H5.38248V136.71H4.065V129.437H5.24398L8.66728 134.395H8.7312V129.437H10.0416ZM13.7996 136.816C13.2669 136.816 12.8052 136.699 12.4146 136.465C12.024 136.231 11.721 135.903 11.5055 135.481C11.2925 135.06 11.1859 134.567 11.1859 134.004C11.1859 133.441 11.2925 132.947 11.5055 132.523C11.721 132.099 12.024 131.77 12.4146 131.536C12.8052 131.302 13.2669 131.184 13.7996 131.184C14.3322 131.184 14.7939 131.302 15.1845 131.536C15.5751 131.77 15.877 132.099 16.09 132.523C16.3055 132.947 16.4132 133.441 16.4132 134.004C16.4132 134.567 16.3055 135.06 16.09 135.481C15.877 135.903 15.5751 136.231 15.1845 136.465C14.7939 136.699 14.3322 136.816 13.7996 136.816ZM13.8067 135.787C14.0955 135.787 14.337 135.707 14.5311 135.549C14.7252 135.388 14.8696 135.172 14.9643 134.902C15.0614 134.633 15.1099 134.332 15.1099 134C15.1099 133.667 15.0614 133.365 14.9643 133.095C14.8696 132.823 14.7252 132.606 14.5311 132.445C14.337 132.284 14.0955 132.204 13.8067 132.204C13.5107 132.204 13.2645 132.284 13.068 132.445C12.8739 132.606 12.7283 132.823 12.6312 133.095C12.5365 133.365 12.4892 133.667 12.4892 134C12.4892 134.332 12.5365 134.633 12.6312 134.902C12.7283 135.172 12.8739 135.388 13.068 135.549C13.2645 135.707 13.5107 135.787 13.8067 135.787ZM26.5401 133.074C26.5401 133.857 26.3934 134.528 26.0998 135.087C25.8086 135.643 25.4109 136.07 24.9066 136.366C24.4047 136.661 23.8354 136.809 23.1985 136.809C22.5617 136.809 21.9911 136.661 21.4869 136.366C20.985 136.067 20.5873 135.64 20.2937 135.084C20.0025 134.525 19.8569 133.855 19.8569 133.074C19.8569 132.29 20.0025 131.62 20.2937 131.064C20.5873 130.505 20.985 130.078 21.4869 129.782C21.9911 129.486 22.5617 129.338 23.1985 129.338C23.8354 129.338 24.4047 129.486 24.9066 129.782C25.4109 130.078 25.8086 130.505 26.0998 131.064C26.3934 131.62 26.5401 132.29 26.5401 133.074ZM25.2156 133.074C25.2156 132.522 25.1292 132.057 24.9563 131.678C24.7859 131.297 24.5491 131.009 24.2461 130.815C23.9431 130.619 23.5939 130.52 23.1985 130.52C22.8032 130.52 22.454 130.619 22.1509 130.815C21.8479 131.009 21.61 131.297 21.4372 131.678C21.2667 132.057 21.1815 132.522 21.1815 133.074C21.1815 133.625 21.2667 134.092 21.4372 134.473C21.61 134.852 21.8479 135.139 22.1509 135.336C22.454 135.53 22.8032 135.627 23.1985 135.627C23.5939 135.627 23.9431 135.53 24.2461 135.336C24.5491 135.139 24.7859 134.852 24.9563 134.473C25.1292 134.092 25.2156 133.625 25.2156 133.074ZM27.7289 136.71V131.255H28.9753V132.165H29.0322C29.1316 131.85 29.302 131.607 29.5435 131.437C29.7874 131.264 30.0655 131.177 30.378 131.177C30.4491 131.177 30.5284 131.181 30.616 131.188C30.7059 131.193 30.7805 131.201 30.8397 131.213V132.395C30.7852 132.376 30.6988 132.36 30.5805 132.346C30.4644 132.329 30.352 132.321 30.2431 132.321C30.0087 132.321 29.798 132.372 29.611 132.473C29.4263 132.573 29.2807 132.711 29.1742 132.889C29.0677 133.066 29.0144 133.271 29.0144 133.503V136.71H27.7289ZM33.4933 136.806C33.0648 136.806 32.6812 136.696 32.3427 136.476C32.0042 136.255 31.7366 135.936 31.5401 135.517C31.3437 135.098 31.2454 134.589 31.2454 133.99C31.2454 133.384 31.3448 132.872 31.5437 132.456C31.7449 132.037 32.016 131.721 32.3569 131.508C32.6978 131.292 33.0778 131.184 33.4968 131.184C33.8164 131.184 34.0792 131.239 34.2852 131.348C34.4911 131.454 34.6545 131.583 34.7752 131.735C34.896 131.884 34.9895 132.025 35.0558 132.157H35.109V129.437H36.3981V136.71H35.1339V135.851H35.0558C34.9895 135.983 34.8936 136.124 34.7681 136.273C34.6427 136.42 34.4769 136.545 34.271 136.65C34.065 136.754 33.8058 136.806 33.4933 136.806ZM33.8519 135.751C34.1242 135.751 34.3562 135.678 34.548 135.531C34.7397 135.382 34.8853 135.175 34.9847 134.91C35.0842 134.644 35.1339 134.335 35.1339 133.983C35.1339 133.63 35.0842 133.323 34.9847 133.063C34.8877 132.803 34.7433 132.6 34.5515 132.456C34.3621 132.311 34.1289 132.239 33.8519 132.239C33.5655 132.239 33.3264 132.314 33.1346 132.463C32.9428 132.612 32.7984 132.818 32.7014 133.081C32.6043 133.343 32.5558 133.644 32.5558 133.983C32.5558 134.324 32.6043 134.628 32.7014 134.895C32.8008 135.16 32.9464 135.37 33.1382 135.524C33.3323 135.675 33.5702 135.751 33.8519 135.751ZM40.1827 136.816C39.6359 136.816 39.1635 136.703 38.7658 136.476C38.3705 136.246 38.0662 135.922 37.8532 135.503C37.6401 135.081 37.5336 134.585 37.5336 134.015C37.5336 133.454 37.6401 132.961 37.8532 132.537C38.0686 132.111 38.3693 131.78 38.7552 131.543C39.1411 131.304 39.5944 131.184 40.1153 131.184C40.4514 131.184 40.7687 131.239 41.067 131.348C41.3676 131.454 41.6328 131.62 41.8624 131.845C42.0944 132.07 42.2767 132.356 42.4093 132.704C42.5419 133.05 42.6082 133.462 42.6082 133.94V134.334H38.1373V133.468H41.3759C41.3735 133.222 41.3203 133.003 41.2161 132.811C41.1119 132.617 40.9663 132.464 40.7793 132.353C40.5947 132.241 40.3792 132.186 40.133 132.186C39.8702 132.186 39.6394 132.25 39.4405 132.378C39.2417 132.503 39.0866 132.669 38.9753 132.875C38.8664 133.078 38.8108 133.302 38.8084 133.546V134.302C38.8084 134.62 38.8664 134.892 38.9824 135.119C39.0984 135.344 39.2606 135.517 39.4689 135.638C39.6773 135.756 39.9211 135.815 40.2005 135.815C40.3875 135.815 40.5568 135.789 40.7083 135.737C40.8598 135.682 40.9912 135.603 41.1025 135.499C41.2137 135.395 41.2978 135.266 41.3546 135.112L42.5549 135.247C42.4791 135.564 42.3347 135.841 42.1216 136.078C41.9109 136.312 41.6411 136.495 41.312 136.625C40.9829 136.753 40.6065 136.816 40.1827 136.816ZM43.6957 136.71V131.255H44.9421V132.165H44.999C45.0984 131.85 45.2688 131.607 45.5103 131.437C45.7542 131.264 46.0323 131.177 46.3448 131.177C46.4159 131.177 46.4952 131.181 46.5828 131.188C46.6727 131.193 46.7473 131.201 46.8065 131.213V132.395C46.752 132.376 46.6656 132.36 46.5472 132.346C46.4312 132.329 46.3188 132.321 46.2099 132.321C45.9755 132.321 45.7648 132.372 45.5778 132.473C45.3931 132.573 45.2475 132.711 45.141 132.889C45.0345 133.066 44.9812 133.271 44.9812 133.503V136.71H43.6957ZM51.1318 136.71H49.7255L52.2859 129.437H53.9123L56.4762 136.71H55.07L53.1275 130.929H53.0707L51.1318 136.71ZM51.1779 133.858H55.0132V134.917H51.1779V133.858ZM61.6005 132.697L60.4286 132.825C60.3955 132.707 60.3375 132.595 60.2546 132.491C60.1741 132.387 60.0652 132.303 59.9279 132.239C59.7906 132.175 59.6225 132.143 59.4237 132.143C59.1562 132.143 58.9312 132.201 58.749 132.317C58.569 132.433 58.4803 132.584 58.4826 132.768C58.4803 132.927 58.5383 133.056 58.6566 133.155C58.7774 133.255 58.9762 133.336 59.2532 133.4L60.1836 133.599C60.6997 133.71 61.0832 133.887 61.3342 134.128C61.5875 134.37 61.7153 134.686 61.7177 135.076C61.7153 135.42 61.6147 135.723 61.4159 135.986C61.2194 136.246 60.9459 136.45 60.5955 136.596C60.2452 136.743 59.8427 136.816 59.3882 136.816C58.7205 136.816 58.1831 136.677 57.7759 136.397C57.3687 136.116 57.1261 135.724 57.048 135.222L58.3015 135.101C58.3583 135.348 58.4791 135.533 58.6637 135.659C58.8484 135.784 59.0887 135.847 59.3846 135.847C59.69 135.847 59.935 135.784 60.1197 135.659C60.3067 135.533 60.4002 135.378 60.4002 135.194C60.4002 135.037 60.3399 134.908 60.2191 134.807C60.1008 134.705 59.9161 134.627 59.6651 134.572L58.7347 134.377C58.2115 134.268 57.8245 134.084 57.5735 133.826C57.3226 133.566 57.1983 133.237 57.2007 132.839C57.1983 132.503 57.2894 132.212 57.4741 131.966C57.6611 131.717 57.9204 131.525 58.2518 131.39C58.5856 131.253 58.9703 131.184 59.4059 131.184C60.0451 131.184 60.5482 131.321 60.9151 131.593C61.2845 131.865 61.5129 132.233 61.6005 132.697ZM67.0888 132.697L65.9169 132.825C65.8838 132.707 65.8258 132.595 65.7429 132.491C65.6624 132.387 65.5535 132.303 65.4162 132.239C65.2789 132.175 65.1108 132.143 64.912 132.143C64.6444 132.143 64.4195 132.201 64.2372 132.317C64.0573 132.433 63.9685 132.584 63.9709 132.768C63.9685 132.927 64.0265 133.056 64.1449 133.155C64.2656 133.255 64.4645 133.336 64.7415 133.4L65.6719 133.599C66.188 133.71 66.5715 133.887 66.8225 134.128C67.0758 134.37 67.2036 134.686 67.206 135.076C67.2036 135.42 67.103 135.723 66.9041 135.986C66.7076 136.246 66.4342 136.45 66.0838 136.596C65.7334 136.743 65.331 136.816 64.8764 136.816C64.2088 136.816 63.6714 136.677 63.2642 136.397C62.857 136.116 62.6144 135.724 62.5362 135.222L63.7898 135.101C63.8466 135.348 63.9673 135.533 64.152 135.659C64.3367 135.784 64.577 135.847 64.8729 135.847C65.1783 135.847 65.4233 135.784 65.608 135.659C65.795 135.533 65.8885 135.378 65.8885 135.194C65.8885 135.037 65.8281 134.908 65.7074 134.807C65.589 134.705 65.4044 134.627 65.1534 134.572L64.223 134.377C63.6998 134.268 63.3128 134.084 63.0618 133.826C62.8109 133.566 62.6866 133.237 62.6889 132.839C62.6866 132.503 62.7777 132.212 62.9624 131.966C63.1494 131.717 63.4086 131.525 63.7401 131.39C64.0739 131.253 64.4586 131.184 64.8942 131.184C65.5334 131.184 66.0365 131.321 66.4034 131.593C66.7727 131.865 67.0012 132.233 67.0888 132.697ZM68.266 136.71V131.255H69.5515V136.71H68.266ZM68.9123 130.481C68.7087 130.481 68.5335 130.414 68.3867 130.279C68.24 130.142 68.1666 129.977 68.1666 129.785C68.1666 129.591 68.24 129.427 68.3867 129.292C68.5335 129.154 68.7087 129.086 68.9123 129.086C69.1183 129.086 69.2935 129.154 69.4379 129.292C69.5847 129.427 69.658 129.591 69.658 129.785C69.658 129.977 69.5847 130.142 69.4379 130.279C69.2935 130.414 69.1183 130.481 68.9123 130.481ZM73.2456 138.869C72.7839 138.869 72.3874 138.806 72.0559 138.681C71.7245 138.558 71.4582 138.392 71.2569 138.184C71.0557 137.975 70.916 137.745 70.8379 137.491L71.9956 137.211C72.0477 137.317 72.1234 137.423 72.2228 137.527C72.3223 137.633 72.456 137.721 72.6241 137.79C72.7946 137.861 73.0088 137.896 73.2669 137.896C73.6315 137.896 73.9333 137.807 74.1724 137.63C74.4115 137.455 74.5311 137.166 74.5311 136.763V135.73H74.4672C74.4009 135.862 74.3038 135.999 74.176 136.138C74.0505 136.278 73.8836 136.395 73.6753 136.49C73.4693 136.584 73.2101 136.632 72.8976 136.632C72.4785 136.632 72.0986 136.534 71.7577 136.337C71.4191 136.138 71.1492 135.842 70.948 135.449C70.7491 135.054 70.6497 134.559 70.6497 133.965C70.6497 133.366 70.7491 132.861 70.948 132.449C71.1492 132.034 71.4203 131.721 71.7612 131.508C72.1021 131.292 72.4821 131.184 72.9011 131.184C73.2207 131.184 73.4835 131.239 73.6895 131.348C73.8978 131.454 74.0635 131.583 74.1866 131.735C74.3097 131.884 74.4032 132.025 74.4672 132.157H74.5382V131.255H75.8059V136.799C75.8059 137.265 75.6947 137.651 75.4721 137.956C75.2496 138.262 74.9454 138.49 74.5595 138.642C74.1736 138.793 73.7356 138.869 73.2456 138.869ZM73.2562 135.623C73.5285 135.623 73.7605 135.557 73.9523 135.424C74.144 135.292 74.2896 135.101 74.389 134.853C74.4885 134.604 74.5382 134.306 74.5382 133.958C74.5382 133.615 74.4885 133.314 74.389 133.056C74.292 132.798 74.1476 132.598 73.9558 132.456C73.7664 132.311 73.5332 132.239 73.2562 132.239C72.9698 132.239 72.7307 132.314 72.5389 132.463C72.3471 132.612 72.2027 132.817 72.1057 133.077C72.0086 133.335 71.9601 133.629 71.9601 133.958C71.9601 134.292 72.0086 134.584 72.1057 134.835C72.2051 135.084 72.3507 135.278 72.5425 135.417C72.7366 135.555 72.9745 135.623 73.2562 135.623ZM78.4089 133.514V136.71H77.1234V131.255H78.3521V132.182H78.416C78.5415 131.877 78.7416 131.634 79.0162 131.454C79.2932 131.274 79.6353 131.184 80.0425 131.184C80.4189 131.184 80.7468 131.265 81.0261 131.426C81.3078 131.587 81.5256 131.82 81.6795 132.125C81.8358 132.431 81.9127 132.801 81.9103 133.237V136.71H80.6248V133.436C80.6248 133.071 80.5301 132.786 80.3407 132.58C80.1537 132.374 79.8945 132.271 79.563 132.271C79.3381 132.271 79.1381 132.321 78.9629 132.42C78.7901 132.517 78.654 132.658 78.5545 132.843C78.4575 133.027 78.4089 133.251 78.4089 133.514ZM85.6319 136.816C85.0851 136.816 84.6128 136.703 84.215 136.476C83.8197 136.246 83.5155 135.922 83.3024 135.503C83.0893 135.081 82.9828 134.585 82.9828 134.015C82.9828 133.454 83.0893 132.961 83.3024 132.537C83.5178 132.111 83.8185 131.78 84.2044 131.543C84.5903 131.304 85.0436 131.184 85.5645 131.184C85.9006 131.184 86.2179 131.239 86.5162 131.348C86.8168 131.454 87.082 131.62 87.3116 131.845C87.5436 132.07 87.7259 132.356 87.8585 132.704C87.9911 133.05 88.0574 133.462 88.0574 133.94V134.334H83.5865V133.468H86.8251C86.8228 133.222 86.7695 133.003 86.6653 132.811C86.5612 132.617 86.4156 132.464 86.2285 132.353C86.0439 132.241 85.8284 132.186 85.5822 132.186C85.3194 132.186 85.0886 132.25 84.8898 132.378C84.6909 132.503 84.5358 132.669 84.4246 132.875C84.3157 133.078 84.26 133.302 84.2577 133.546V134.302C84.2577 134.62 84.3157 134.892 84.4317 135.119C84.5477 135.344 84.7098 135.517 84.9182 135.638C85.1265 135.756 85.3703 135.815 85.6497 135.815C85.8367 135.815 86.006 135.789 86.1575 135.737C86.309 135.682 86.4404 135.603 86.5517 135.499C86.663 135.395 86.747 135.266 86.8038 135.112L88.0041 135.247C87.9283 135.564 87.7839 135.841 87.5709 136.078C87.3602 136.312 87.0903 136.495 86.7612 136.625C86.4321 136.753 86.0557 136.816 85.6319 136.816ZM91.169 136.806C90.7405 136.806 90.357 136.696 90.0185 136.476C89.6799 136.255 89.4124 135.936 89.2159 135.517C89.0194 135.098 88.9212 134.589 88.9212 133.99C88.9212 133.384 89.0206 132.872 89.2195 132.456C89.4207 132.037 89.6918 131.721 90.0327 131.508C90.3736 131.292 90.7536 131.184 91.1726 131.184C91.4922 131.184 91.755 131.239 91.961 131.348C92.1669 131.454 92.3303 131.583 92.451 131.735C92.5717 131.884 92.6653 132.025 92.7315 132.157H92.7848V129.437H94.0739V136.71H92.8097V135.851H92.7315C92.6653 135.983 92.5694 136.124 92.4439 136.273C92.3184 136.42 92.1527 136.545 91.9467 136.65C91.7408 136.754 91.4815 136.806 91.169 136.806ZM91.5277 135.751C91.8 135.751 92.032 135.678 92.2237 135.531C92.4155 135.382 92.5611 135.175 92.6605 134.91C92.76 134.644 92.8097 134.335 92.8097 133.983C92.8097 133.63 92.76 133.323 92.6605 133.063C92.5635 132.803 92.419 132.6 92.2273 132.456C92.0379 132.311 91.8047 132.239 91.5277 132.239C91.2413 132.239 91.0021 132.314 90.8104 132.463C90.6186 132.612 90.4742 132.818 90.3771 133.081C90.2801 133.343 90.2315 133.644 90.2315 133.983C90.2315 134.324 90.2801 134.628 90.3771 134.895C90.4766 135.16 90.6222 135.37 90.8139 135.524C91.0081 135.675 91.246 135.751 91.5277 135.751ZM98.7232 138.755C98.548 138.755 98.3858 138.741 98.2367 138.713C98.0899 138.687 97.9727 138.656 97.8851 138.62L98.1834 137.619C98.3705 137.674 98.5374 137.7 98.6841 137.697C98.8309 137.695 98.9599 137.649 99.0712 137.559C99.1849 137.471 99.2807 137.324 99.3589 137.118L99.4689 136.824L97.491 131.255H98.8546L100.112 135.375H100.169L101.429 131.255H102.796L100.612 137.37C100.511 137.659 100.376 137.907 100.208 138.113C100.039 138.321 99.8335 138.48 99.5897 138.589C99.3482 138.7 99.0594 138.755 98.7232 138.755ZM105.915 136.816C105.368 136.816 104.896 136.703 104.498 136.476C104.103 136.246 103.799 135.922 103.586 135.503C103.373 135.081 103.266 134.585 103.266 134.015C103.266 133.454 103.373 132.961 103.586 132.537C103.801 132.111 104.102 131.78 104.488 131.543C104.873 131.304 105.327 131.184 105.848 131.184C106.184 131.184 106.501 131.239 106.799 131.348C107.1 131.454 107.365 131.62 107.595 131.845C107.827 132.07 108.009 132.356 108.142 132.704C108.274 133.05 108.341 133.462 108.341 133.94V134.334H103.87V133.468H107.108C107.106 133.222 107.053 133.003 106.949 132.811C106.844 132.617 106.699 132.464 106.512 132.353C106.327 132.241 106.112 132.186 105.865 132.186C105.603 132.186 105.372 132.25 105.173 132.378C104.974 132.503 104.819 132.669 104.708 132.875C104.599 133.078 104.543 133.302 104.541 133.546V134.302C104.541 134.62 104.599 134.892 104.715 135.119C104.831 135.344 104.993 135.517 105.201 135.638C105.41 135.756 105.654 135.815 105.933 135.815C106.12 135.815 106.289 135.789 106.441 135.737C106.592 135.682 106.724 135.603 106.835 135.499C106.946 135.395 107.03 135.266 107.087 135.112L108.287 135.247C108.212 135.564 108.067 135.841 107.854 136.078C107.643 136.312 107.373 136.495 107.044 136.625C106.715 136.753 106.339 136.816 105.915 136.816ZM112.152 131.255V132.25H109.016V131.255H112.152ZM109.79 129.949H111.076V135.069C111.076 135.242 111.102 135.375 111.154 135.467C111.208 135.557 111.279 135.619 111.367 135.652C111.455 135.685 111.552 135.701 111.658 135.701C111.739 135.701 111.812 135.696 111.878 135.684C111.947 135.672 111.999 135.661 112.035 135.652L112.251 136.657C112.183 136.68 112.084 136.706 111.957 136.735C111.831 136.763 111.677 136.78 111.495 136.785C111.173 136.794 110.883 136.745 110.625 136.639C110.367 136.53 110.162 136.362 110.01 136.135C109.861 135.907 109.788 135.623 109.79 135.282V129.949ZM114.8 129.437L114.683 134.572H113.539L113.426 129.437H114.8ZM114.111 136.788C113.896 136.788 113.711 136.712 113.557 136.561C113.406 136.409 113.33 136.225 113.33 136.007C113.33 135.794 113.406 135.611 113.557 135.46C113.711 135.308 113.896 135.233 114.111 135.233C114.322 135.233 114.504 135.308 114.658 135.46C114.814 135.611 114.892 135.794 114.892 136.007C114.892 136.151 114.856 136.283 114.782 136.401C114.711 136.519 114.617 136.614 114.498 136.685C114.382 136.754 114.253 136.788 114.111 136.788Z" fill="#2C2828"/>
</svg>
