<svg width="18" height="18" viewBox="0 0 18 18" fill="none" xmlns="http://www.w3.org/2000/svg">
<path d="M6.86255 5.61749C6.44255 5.61749 6.11255 5.95499 6.11255 6.36749C6.11255 6.77999 6.45005 7.11749 6.86255 7.11749C7.27505 7.11749 7.61255 6.77999 7.61255 6.36749C7.61255 5.95499 7.27505 5.61749 6.86255 5.61749Z" fill="#B9253D"/>
<path d="M16.095 3.78C15.465 2.3175 14.0775 1.5 12.1425 1.5H5.8575C3.45 1.5 1.5 3.45 1.5 5.8575V12.1425C1.5 14.0775 2.3175 15.465 3.78 16.095C3.9225 16.155 4.0875 16.1175 4.1925 16.0125L16.0125 4.1925C16.125 4.08 16.1625 3.915 16.095 3.78ZM7.8975 9.18C7.605 9.465 7.2225 9.6 6.84 9.6C6.4575 9.6 6.075 9.4575 5.7825 9.18C5.0175 8.46 4.1775 7.3125 4.5 5.9475C4.785 4.71 5.88 4.155 6.84 4.155C7.8 4.155 8.895 4.71 9.18 5.955C9.495 7.3125 8.655 8.46 7.8975 9.18Z" fill="#B9253D"/>
<path d="M14.6024 15.3975C14.7674 15.5625 14.7449 15.8325 14.5424 15.945C13.8824 16.3125 13.0799 16.5 12.1424 16.5H5.85742C5.63992 16.5 5.54992 16.245 5.69992 16.095L10.2299 11.565C10.3799 11.415 10.6124 11.415 10.7624 11.565L14.6024 15.3975Z" fill="#B9253D"/>
<path d="M16.5001 5.85751V12.1425C16.5001 13.08 16.3126 13.89 15.9451 14.5425C15.8326 14.745 15.5626 14.76 15.3976 14.6025L11.5576 10.7625C11.4076 10.6125 11.4076 10.38 11.5576 10.23L16.0876 5.70001C16.2451 5.55001 16.5001 5.64001 16.5001 5.85751Z" fill="#B9253D"/>
</svg>
