<svg width="40" height="40" viewBox="0 0 40 40" fill="none" xmlns="http://www.w3.org/2000/svg">
<path d="M26.9835 3.33337H13.0168C6.95016 3.33337 3.3335 6.95004 3.3335 13.0167V26.9667C3.3335 33.05 6.95016 36.6667 13.0168 36.6667H26.9668C33.0335 36.6667 36.6502 33.05 36.6502 26.9834V13.0167C36.6668 6.95004 33.0502 3.33337 26.9835 3.33337ZM27.9668 16.1667L18.5168 25.6167C18.2835 25.85 17.9668 25.9834 17.6335 25.9834C17.3002 25.9834 16.9835 25.85 16.7502 25.6167L12.0335 20.9C11.5502 20.4167 11.5502 19.6167 12.0335 19.1334C12.5168 18.65 13.3168 18.65 13.8002 19.1334L17.6335 22.9667L26.2002 14.4C26.6835 13.9167 27.4835 13.9167 27.9668 14.4C28.4502 14.8834 28.4502 15.6667 27.9668 16.1667Z" fill="white"/>
</svg>
